<mxfile host="app.diagrams.net" modified="2023-09-26T17:57:30.069Z" agent="Mozilla/5.0 (Windows NT 10.0; Win64; x64) AppleWebKit/537.36 (KHTML, like Gecko) Chrome/112.0.0.0 YaBrowser/23.5.2.625 Yowser/2.5 Safari/537.36" etag="CfY1TeBwtsWD5EDlAA6A" version="21.8.2" type="device">
  <diagram id="C5RBs43oDa-KdzZeNtuy" name="Page-1">
    <mxGraphModel dx="2213" dy="791" grid="1" gridSize="10" guides="1" tooltips="1" connect="1" arrows="1" fold="1" page="1" pageScale="1" pageWidth="827" pageHeight="1169" math="0" shadow="0">
      <root>
        <mxCell id="WIyWlLk6GJQsqaUBKTNV-0" />
        <mxCell id="WIyWlLk6GJQsqaUBKTNV-1" parent="WIyWlLk6GJQsqaUBKTNV-0" />
        <mxCell id="ka5yBr0gDDP4swyb2B78-19" value="" style="endArrow=open;shadow=0;strokeWidth=1;rounded=0;endFill=1;elbow=vertical;entryX=0.207;entryY=0.093;entryDx=0;entryDy=0;entryPerimeter=0;" edge="1" parent="WIyWlLk6GJQsqaUBKTNV-1" target="Q4GSdecy_JUs_ZEFxcg4-7">
          <mxGeometry x="0.5" y="41" relative="1" as="geometry">
            <mxPoint x="40" y="380" as="sourcePoint" />
            <mxPoint x="590" y="415" as="targetPoint" />
            <mxPoint x="-40" y="32" as="offset" />
          </mxGeometry>
        </mxCell>
        <mxCell id="ka5yBr0gDDP4swyb2B78-17" value="" style="endArrow=open;shadow=0;strokeWidth=1;rounded=0;endFill=1;elbow=vertical;entryX=0.036;entryY=0.264;entryDx=0;entryDy=0;entryPerimeter=0;" edge="1" parent="WIyWlLk6GJQsqaUBKTNV-1" target="Q4GSdecy_JUs_ZEFxcg4-6">
          <mxGeometry x="0.5" y="41" relative="1" as="geometry">
            <mxPoint x="40" y="360" as="sourcePoint" />
            <mxPoint x="570" y="395" as="targetPoint" />
            <mxPoint x="-40" y="32" as="offset" />
            <Array as="points">
              <mxPoint x="380" y="360" />
            </Array>
          </mxGeometry>
        </mxCell>
        <mxCell id="zkfFHV4jXpPFQw0GAbJ--26" value="" style="endArrow=open;shadow=0;strokeWidth=1;rounded=0;endFill=1;elbow=vertical;entryX=0;entryY=0.5;entryDx=0;entryDy=0;" parent="WIyWlLk6GJQsqaUBKTNV-1" source="HAlKXmDzrB93N0-EfDcC-4" target="HAlKXmDzrB93N0-EfDcC-1" edge="1">
          <mxGeometry x="0.5" y="41" relative="1" as="geometry">
            <mxPoint x="160" y="310" as="sourcePoint" />
            <mxPoint x="160" y="380" as="targetPoint" />
            <mxPoint x="-40" y="32" as="offset" />
          </mxGeometry>
        </mxCell>
        <mxCell id="ka5yBr0gDDP4swyb2B78-18" value="" style="endArrow=open;shadow=0;strokeWidth=1;rounded=0;endFill=1;elbow=vertical;entryX=0;entryY=0.5;entryDx=0;entryDy=0;" edge="1" parent="WIyWlLk6GJQsqaUBKTNV-1" source="HAlKXmDzrB93N0-EfDcC-4" target="HAlKXmDzrB93N0-EfDcC-3">
          <mxGeometry x="0.5" y="41" relative="1" as="geometry">
            <mxPoint x="70" y="405" as="sourcePoint" />
            <mxPoint x="580" y="405" as="targetPoint" />
            <mxPoint x="-40" y="32" as="offset" />
            <Array as="points">
              <mxPoint x="80" y="510" />
            </Array>
          </mxGeometry>
        </mxCell>
        <mxCell id="ka5yBr0gDDP4swyb2B78-15" value="" style="endArrow=open;shadow=0;strokeWidth=1;rounded=0;endFill=1;elbow=vertical;exitX=0.929;exitY=0.214;exitDx=0;exitDy=0;exitPerimeter=0;" edge="1" parent="WIyWlLk6GJQsqaUBKTNV-1" source="Q4GSdecy_JUs_ZEFxcg4-6">
          <mxGeometry x="0.5" y="41" relative="1" as="geometry">
            <mxPoint x="50" y="385" as="sourcePoint" />
            <mxPoint x="970" y="240" as="targetPoint" />
            <mxPoint x="-40" y="32" as="offset" />
          </mxGeometry>
        </mxCell>
        <mxCell id="ka5yBr0gDDP4swyb2B78-9" value="" style="endArrow=none;shadow=0;strokeWidth=1;rounded=0;endFill=0;elbow=vertical;startArrow=classicThin;startFill=1;" edge="1" parent="WIyWlLk6GJQsqaUBKTNV-1" source="Q4GSdecy_JUs_ZEFxcg4-3">
          <mxGeometry x="0.5" y="41" relative="1" as="geometry">
            <mxPoint x="550" y="220" as="sourcePoint" />
            <mxPoint x="25" y="340" as="targetPoint" />
            <mxPoint x="-40" y="32" as="offset" />
            <Array as="points">
              <mxPoint x="620" y="130" />
              <mxPoint x="300" y="130" />
              <mxPoint x="25" y="130" />
            </Array>
          </mxGeometry>
        </mxCell>
        <mxCell id="HAlKXmDzrB93N0-EfDcC-0" value="Друзі" style="shape=umlActor;verticalLabelPosition=bottom;verticalAlign=top;html=1;" parent="WIyWlLk6GJQsqaUBKTNV-1" vertex="1">
          <mxGeometry x="970" y="175" width="30" height="60" as="geometry" />
        </mxCell>
        <mxCell id="HAlKXmDzrB93N0-EfDcC-1" value="Авторизація у&lt;br&gt;програму" style="ellipse;whiteSpace=wrap;html=1;" parent="WIyWlLk6GJQsqaUBKTNV-1" vertex="1">
          <mxGeometry x="550" y="340" width="140" height="70" as="geometry" />
        </mxCell>
        <mxCell id="HAlKXmDzrB93N0-EfDcC-3" value="Перегляд нових релізів та подій" style="ellipse;whiteSpace=wrap;html=1;" parent="WIyWlLk6GJQsqaUBKTNV-1" vertex="1">
          <mxGeometry x="640" y="620" width="140" height="70" as="geometry" />
        </mxCell>
        <mxCell id="HAlKXmDzrB93N0-EfDcC-4" value="Музикоман-користувач" style="shape=umlActor;verticalLabelPosition=bottom;verticalAlign=top;html=1;" parent="WIyWlLk6GJQsqaUBKTNV-1" vertex="1">
          <mxGeometry x="10" y="345" width="30" height="60" as="geometry" />
        </mxCell>
        <mxCell id="HAlKXmDzrB93N0-EfDcC-8" value="Створення&lt;br&gt;плейлистів" style="ellipse;whiteSpace=wrap;html=1;" parent="WIyWlLk6GJQsqaUBKTNV-1" vertex="1">
          <mxGeometry x="190" y="140" width="140" height="70" as="geometry" />
        </mxCell>
        <mxCell id="Q4GSdecy_JUs_ZEFxcg4-3" value="Організація спільних заходів з друзями" style="ellipse;whiteSpace=wrap;html=1;" parent="WIyWlLk6GJQsqaUBKTNV-1" vertex="1">
          <mxGeometry x="550" y="170" width="140" height="70" as="geometry" />
        </mxCell>
        <mxCell id="Q4GSdecy_JUs_ZEFxcg4-4" value="Купівля квитків на концерти" style="ellipse;whiteSpace=wrap;html=1;" parent="WIyWlLk6GJQsqaUBKTNV-1" vertex="1">
          <mxGeometry x="720" y="260" width="140" height="70" as="geometry" />
        </mxCell>
        <mxCell id="Q4GSdecy_JUs_ZEFxcg4-5" value="Слідкування за новинами" style="ellipse;whiteSpace=wrap;html=1;" parent="WIyWlLk6GJQsqaUBKTNV-1" vertex="1">
          <mxGeometry x="320" y="630" width="140" height="70" as="geometry" />
        </mxCell>
        <mxCell id="Q4GSdecy_JUs_ZEFxcg4-6" value="Пошук психологічної рівноваги через музику&lt;br&gt;і дружбу" style="ellipse;whiteSpace=wrap;html=1;" parent="WIyWlLk6GJQsqaUBKTNV-1" vertex="1">
          <mxGeometry x="460" y="540" width="140" height="70" as="geometry" />
        </mxCell>
        <mxCell id="Q4GSdecy_JUs_ZEFxcg4-7" value="Вибір музики для релаксу" style="ellipse;whiteSpace=wrap;html=1;" parent="WIyWlLk6GJQsqaUBKTNV-1" vertex="1">
          <mxGeometry x="700" y="500" width="140" height="70" as="geometry" />
        </mxCell>
        <mxCell id="Q4GSdecy_JUs_ZEFxcg4-8" value="Вивчення гри на інструменті та&lt;br&gt;створення композицій" style="ellipse;whiteSpace=wrap;html=1;" parent="WIyWlLk6GJQsqaUBKTNV-1" vertex="1">
          <mxGeometry x="180" y="430" width="140" height="70" as="geometry" />
        </mxCell>
        <mxCell id="Q4GSdecy_JUs_ZEFxcg4-10" value="" style="endArrow=open;shadow=0;strokeWidth=1;rounded=0;endFill=1;elbow=vertical;entryX=1;entryY=0.5;entryDx=0;entryDy=0;" parent="WIyWlLk6GJQsqaUBKTNV-1" source="HAlKXmDzrB93N0-EfDcC-0" target="Q4GSdecy_JUs_ZEFxcg4-3" edge="1">
          <mxGeometry x="0.5" y="41" relative="1" as="geometry">
            <mxPoint x="340" y="290" as="sourcePoint" />
            <mxPoint x="850" y="290" as="targetPoint" />
            <mxPoint x="-40" y="32" as="offset" />
          </mxGeometry>
        </mxCell>
        <mxCell id="Q4GSdecy_JUs_ZEFxcg4-11" value="" style="endArrow=block;endSize=16;endFill=0;html=1;rounded=0;" parent="WIyWlLk6GJQsqaUBKTNV-1" edge="1">
          <mxGeometry width="160" relative="1" as="geometry">
            <mxPoint x="985" y="260" as="sourcePoint" />
            <mxPoint x="24" y="440" as="targetPoint" />
            <Array as="points">
              <mxPoint x="980" y="760" />
              <mxPoint x="500" y="760" />
              <mxPoint x="24" y="760" />
            </Array>
          </mxGeometry>
        </mxCell>
        <mxCell id="Q4GSdecy_JUs_ZEFxcg4-14" value="Вибір композицій&lt;br&gt;для плейлисту" style="ellipse;whiteSpace=wrap;html=1;" parent="WIyWlLk6GJQsqaUBKTNV-1" vertex="1">
          <mxGeometry x="160" y="270" width="140" height="70" as="geometry" />
        </mxCell>
        <mxCell id="Q4GSdecy_JUs_ZEFxcg4-15" value="Вибір інструмента" style="ellipse;whiteSpace=wrap;html=1;" parent="WIyWlLk6GJQsqaUBKTNV-1" vertex="1">
          <mxGeometry x="130" y="550" width="140" height="70" as="geometry" />
        </mxCell>
        <mxCell id="Q4GSdecy_JUs_ZEFxcg4-17" value="" style="curved=1;endArrow=classic;html=1;rounded=0;entryX=0.5;entryY=0;entryDx=0;entryDy=0;exitX=1;exitY=0.5;exitDx=0;exitDy=0;dashed=1;" parent="WIyWlLk6GJQsqaUBKTNV-1" source="HAlKXmDzrB93N0-EfDcC-8" target="HAlKXmDzrB93N0-EfDcC-1" edge="1">
          <mxGeometry width="50" height="50" relative="1" as="geometry">
            <mxPoint x="470" y="410" as="sourcePoint" />
            <mxPoint x="520" y="360" as="targetPoint" />
            <Array as="points">
              <mxPoint x="430" y="170" />
              <mxPoint x="470" y="200" />
              <mxPoint x="490" y="220" />
              <mxPoint x="480" y="210" />
            </Array>
          </mxGeometry>
        </mxCell>
        <mxCell id="Q4GSdecy_JUs_ZEFxcg4-18" value="include" style="text;html=1;strokeColor=none;fillColor=none;align=center;verticalAlign=middle;whiteSpace=wrap;rounded=0;rotation=45;" parent="WIyWlLk6GJQsqaUBKTNV-1" vertex="1">
          <mxGeometry x="478.71" y="205.32" width="40" height="17.2" as="geometry" />
        </mxCell>
        <mxCell id="Q4GSdecy_JUs_ZEFxcg4-19" value="" style="curved=1;endArrow=classic;html=1;rounded=0;entryX=0.623;entryY=-0.021;entryDx=0;entryDy=0;exitX=0.539;exitY=1.014;exitDx=0;exitDy=0;dashed=1;exitPerimeter=0;entryPerimeter=0;" parent="WIyWlLk6GJQsqaUBKTNV-1" source="Q4GSdecy_JUs_ZEFxcg4-3" target="HAlKXmDzrB93N0-EfDcC-1" edge="1">
          <mxGeometry width="50" height="50" relative="1" as="geometry">
            <mxPoint x="320" y="345" as="sourcePoint" />
            <mxPoint x="610" y="510" as="targetPoint" />
            <Array as="points">
              <mxPoint x="630" y="260" />
              <mxPoint x="630" y="280" />
              <mxPoint x="630" y="300" />
            </Array>
          </mxGeometry>
        </mxCell>
        <mxCell id="Q4GSdecy_JUs_ZEFxcg4-20" value="include" style="text;html=1;strokeColor=none;fillColor=none;align=center;verticalAlign=middle;whiteSpace=wrap;rounded=0;rotation=90;" parent="WIyWlLk6GJQsqaUBKTNV-1" vertex="1">
          <mxGeometry x="625" y="270" width="30" height="15" as="geometry" />
        </mxCell>
        <mxCell id="Q4GSdecy_JUs_ZEFxcg4-21" value="" style="curved=1;endArrow=classic;html=1;rounded=0;entryX=0.5;entryY=1;entryDx=0;entryDy=0;exitX=0.587;exitY=0.014;exitDx=0;exitDy=0;dashed=1;exitPerimeter=0;" parent="WIyWlLk6GJQsqaUBKTNV-1" source="Q4GSdecy_JUs_ZEFxcg4-14" target="HAlKXmDzrB93N0-EfDcC-8" edge="1">
          <mxGeometry width="50" height="50" relative="1" as="geometry">
            <mxPoint x="245" y="195" as="sourcePoint" />
            <mxPoint x="535" y="360" as="targetPoint" />
            <Array as="points">
              <mxPoint x="220" y="250" />
              <mxPoint x="160" y="260" />
              <mxPoint x="140" y="240" />
            </Array>
          </mxGeometry>
        </mxCell>
        <mxCell id="Q4GSdecy_JUs_ZEFxcg4-22" value="include" style="text;html=1;strokeColor=none;fillColor=none;align=center;verticalAlign=middle;whiteSpace=wrap;rounded=0;rotation=-20;" parent="WIyWlLk6GJQsqaUBKTNV-1" vertex="1">
          <mxGeometry x="160" y="209.99999999999997" width="40" height="17.2" as="geometry" />
        </mxCell>
        <mxCell id="Q4GSdecy_JUs_ZEFxcg4-23" value="" style="curved=1;endArrow=classic;html=1;rounded=0;entryX=0.23;entryY=0.973;entryDx=0;entryDy=0;exitX=1;exitY=0.5;exitDx=0;exitDy=0;dashed=1;entryPerimeter=0;" parent="WIyWlLk6GJQsqaUBKTNV-1" source="Q4GSdecy_JUs_ZEFxcg4-8" target="HAlKXmDzrB93N0-EfDcC-1" edge="1">
          <mxGeometry width="50" height="50" relative="1" as="geometry">
            <mxPoint x="240" y="335" as="sourcePoint" />
            <mxPoint x="530" y="500" as="targetPoint" />
            <Array as="points">
              <mxPoint x="380" y="450" />
              <mxPoint x="430" y="430" />
              <mxPoint x="490" y="420" />
            </Array>
          </mxGeometry>
        </mxCell>
        <mxCell id="Q4GSdecy_JUs_ZEFxcg4-24" value="include" style="text;html=1;strokeColor=none;fillColor=none;align=center;verticalAlign=middle;whiteSpace=wrap;rounded=0;rotation=-10;" parent="WIyWlLk6GJQsqaUBKTNV-1" vertex="1">
          <mxGeometry x="414" y="410" width="40" height="17.2" as="geometry" />
        </mxCell>
        <mxCell id="Q4GSdecy_JUs_ZEFxcg4-25" value="" style="curved=1;endArrow=classic;html=1;rounded=0;entryX=0.5;entryY=1;entryDx=0;entryDy=0;exitX=0.5;exitY=0;exitDx=0;exitDy=0;dashed=1;" parent="WIyWlLk6GJQsqaUBKTNV-1" source="Q4GSdecy_JUs_ZEFxcg4-6" target="HAlKXmDzrB93N0-EfDcC-1" edge="1">
          <mxGeometry width="50" height="50" relative="1" as="geometry">
            <mxPoint x="354" y="537" as="sourcePoint" />
            <mxPoint x="616" y="480" as="targetPoint" />
            <Array as="points">
              <mxPoint x="600" y="500" />
              <mxPoint x="620" y="480" />
              <mxPoint x="630" y="460" />
            </Array>
          </mxGeometry>
        </mxCell>
        <mxCell id="Q4GSdecy_JUs_ZEFxcg4-27" value="" style="curved=1;endArrow=classic;html=1;rounded=0;entryX=0.03;entryY=0.657;entryDx=0;entryDy=0;exitX=0.5;exitY=0;exitDx=0;exitDy=0;dashed=1;entryPerimeter=0;" parent="WIyWlLk6GJQsqaUBKTNV-1" source="Q4GSdecy_JUs_ZEFxcg4-15" target="Q4GSdecy_JUs_ZEFxcg4-8" edge="1">
          <mxGeometry width="50" height="50" relative="1" as="geometry">
            <mxPoint x="270" y="584" as="sourcePoint" />
            <mxPoint x="532" y="527" as="targetPoint" />
            <Array as="points">
              <mxPoint x="30" y="550" />
            </Array>
          </mxGeometry>
        </mxCell>
        <mxCell id="Q4GSdecy_JUs_ZEFxcg4-28" value="include" style="text;html=1;strokeColor=none;fillColor=none;align=center;verticalAlign=middle;whiteSpace=wrap;rounded=0;rotation=-25;" parent="WIyWlLk6GJQsqaUBKTNV-1" vertex="1">
          <mxGeometry x="120" y="480" width="40" height="17.2" as="geometry" />
        </mxCell>
        <mxCell id="Q4GSdecy_JUs_ZEFxcg4-29" value="" style="curved=1;endArrow=classic;html=1;rounded=0;entryX=0.751;entryY=0.919;entryDx=0;entryDy=0;exitX=0.5;exitY=0;exitDx=0;exitDy=0;dashed=1;entryPerimeter=0;" parent="WIyWlLk6GJQsqaUBKTNV-1" source="Q4GSdecy_JUs_ZEFxcg4-7" target="HAlKXmDzrB93N0-EfDcC-1" edge="1">
          <mxGeometry width="50" height="50" relative="1" as="geometry">
            <mxPoint x="600" y="550" as="sourcePoint" />
            <mxPoint x="690" y="420" as="targetPoint" />
            <Array as="points">
              <mxPoint x="780" y="450" />
              <mxPoint x="770" y="410" />
              <mxPoint x="730" y="404" />
            </Array>
          </mxGeometry>
        </mxCell>
        <mxCell id="Q4GSdecy_JUs_ZEFxcg4-30" value="include" style="text;html=1;strokeColor=none;fillColor=none;align=center;verticalAlign=middle;whiteSpace=wrap;rounded=0;rotation=0;" parent="WIyWlLk6GJQsqaUBKTNV-1" vertex="1">
          <mxGeometry x="720" y="387.8" width="40" height="17.2" as="geometry" />
        </mxCell>
        <mxCell id="Q4GSdecy_JUs_ZEFxcg4-31" value="" style="curved=1;endArrow=classic;html=1;rounded=0;entryX=0.649;entryY=1.014;entryDx=0;entryDy=0;exitX=0.5;exitY=0;exitDx=0;exitDy=0;dashed=1;entryPerimeter=0;" parent="WIyWlLk6GJQsqaUBKTNV-1" source="HAlKXmDzrB93N0-EfDcC-3" target="HAlKXmDzrB93N0-EfDcC-1" edge="1">
          <mxGeometry width="50" height="50" relative="1" as="geometry">
            <mxPoint x="780" y="510" as="sourcePoint" />
            <mxPoint x="665" y="414" as="targetPoint" />
            <Array as="points">
              <mxPoint x="670" y="510" />
              <mxPoint x="670" y="480" />
              <mxPoint x="670" y="450" />
            </Array>
          </mxGeometry>
        </mxCell>
        <mxCell id="Q4GSdecy_JUs_ZEFxcg4-32" value="include" style="text;html=1;strokeColor=none;fillColor=none;align=center;verticalAlign=middle;whiteSpace=wrap;rounded=0;rotation=65;" parent="WIyWlLk6GJQsqaUBKTNV-1" vertex="1">
          <mxGeometry x="660" y="440" width="40" height="17.2" as="geometry" />
        </mxCell>
        <mxCell id="Q4GSdecy_JUs_ZEFxcg4-33" value="" style="curved=1;endArrow=classic;html=1;rounded=0;entryX=0.387;entryY=0.979;entryDx=0;entryDy=0;exitX=0.5;exitY=0;exitDx=0;exitDy=0;dashed=1;entryPerimeter=0;" parent="WIyWlLk6GJQsqaUBKTNV-1" source="Q4GSdecy_JUs_ZEFxcg4-5" target="HAlKXmDzrB93N0-EfDcC-1" edge="1">
          <mxGeometry width="50" height="50" relative="1" as="geometry">
            <mxPoint x="330" y="475" as="sourcePoint" />
            <mxPoint x="592" y="418" as="targetPoint" />
            <Array as="points">
              <mxPoint x="430" y="520" />
              <mxPoint x="490" y="490" />
            </Array>
          </mxGeometry>
        </mxCell>
        <mxCell id="Q4GSdecy_JUs_ZEFxcg4-34" value="include" style="text;html=1;strokeColor=none;fillColor=none;align=center;verticalAlign=middle;whiteSpace=wrap;rounded=0;rotation=-25;" parent="WIyWlLk6GJQsqaUBKTNV-1" vertex="1">
          <mxGeometry x="454" y="470" width="40" height="17.2" as="geometry" />
        </mxCell>
        <mxCell id="Q4GSdecy_JUs_ZEFxcg4-35" value="" style="curved=1;endArrow=classic;html=1;rounded=0;entryX=1;entryY=0;entryDx=0;entryDy=0;exitX=0.5;exitY=1;exitDx=0;exitDy=0;dashed=1;" parent="WIyWlLk6GJQsqaUBKTNV-1" source="Q4GSdecy_JUs_ZEFxcg4-4" target="HAlKXmDzrB93N0-EfDcC-1" edge="1">
          <mxGeometry width="50" height="50" relative="1" as="geometry">
            <mxPoint x="688" y="260" as="sourcePoint" />
            <mxPoint x="700" y="358" as="targetPoint" />
            <Array as="points">
              <mxPoint x="770" y="360" />
            </Array>
          </mxGeometry>
        </mxCell>
        <mxCell id="Q4GSdecy_JUs_ZEFxcg4-36" value="include" style="text;html=1;strokeColor=none;fillColor=none;align=center;verticalAlign=middle;whiteSpace=wrap;rounded=0;rotation=0;" parent="WIyWlLk6GJQsqaUBKTNV-1" vertex="1">
          <mxGeometry x="710" y="330" width="30" height="15" as="geometry" />
        </mxCell>
        <mxCell id="Q4GSdecy_JUs_ZEFxcg4-37" value="" style="curved=1;endArrow=classic;html=1;rounded=0;entryX=0;entryY=0;entryDx=0;entryDy=0;exitX=1;exitY=0.5;exitDx=0;exitDy=0;dashed=1;" parent="WIyWlLk6GJQsqaUBKTNV-1" source="Q4GSdecy_JUs_ZEFxcg4-14" target="HAlKXmDzrB93N0-EfDcC-1" edge="1">
          <mxGeometry width="50" height="50" relative="1" as="geometry">
            <mxPoint x="252" y="281" as="sourcePoint" />
            <mxPoint x="270" y="220" as="targetPoint" />
            <Array as="points">
              <mxPoint x="350" y="300" />
              <mxPoint x="450" y="300" />
            </Array>
          </mxGeometry>
        </mxCell>
        <mxCell id="Q4GSdecy_JUs_ZEFxcg4-38" value="include" style="text;html=1;strokeColor=none;fillColor=none;align=center;verticalAlign=middle;whiteSpace=wrap;rounded=0;rotation=0;" parent="WIyWlLk6GJQsqaUBKTNV-1" vertex="1">
          <mxGeometry x="370" y="279.99999999999994" width="40" height="17.2" as="geometry" />
        </mxCell>
        <mxCell id="Q4GSdecy_JUs_ZEFxcg4-39" value="" style="swimlane;startSize=0;" parent="WIyWlLk6GJQsqaUBKTNV-1" vertex="1">
          <mxGeometry x="100" y="118.6" width="790" height="611.4" as="geometry">
            <mxRectangle x="100" y="118.6" width="50" height="40" as="alternateBounds" />
          </mxGeometry>
        </mxCell>
        <mxCell id="Q4GSdecy_JUs_ZEFxcg4-41" value="extend" style="text;html=1;strokeColor=none;fillColor=none;align=center;verticalAlign=middle;whiteSpace=wrap;rounded=0;rotation=-5;" parent="Q4GSdecy_JUs_ZEFxcg4-39" vertex="1">
          <mxGeometry x="600" y="116.39999999999995" width="40" height="17.2" as="geometry" />
        </mxCell>
        <mxCell id="ka5yBr0gDDP4swyb2B78-12" value="include" style="text;html=1;strokeColor=none;fillColor=none;align=center;verticalAlign=middle;whiteSpace=wrap;rounded=0;rotation=-25;" vertex="1" parent="Q4GSdecy_JUs_ZEFxcg4-39">
          <mxGeometry x="270" y="351.4" width="40" height="17.2" as="geometry" />
        </mxCell>
        <mxCell id="Q4GSdecy_JUs_ZEFxcg4-26" value="include" style="text;html=1;strokeColor=none;fillColor=none;align=center;verticalAlign=middle;whiteSpace=wrap;rounded=0;rotation=-35;" parent="Q4GSdecy_JUs_ZEFxcg4-39" vertex="1">
          <mxGeometry x="450" y="371.4" width="40" height="17.2" as="geometry" />
        </mxCell>
        <mxCell id="Q4GSdecy_JUs_ZEFxcg4-40" value="" style="curved=1;endArrow=classic;html=1;rounded=0;entryX=0.5;entryY=0;entryDx=0;entryDy=0;exitX=0.686;exitY=0.95;exitDx=0;exitDy=0;dashed=1;exitPerimeter=0;" parent="WIyWlLk6GJQsqaUBKTNV-1" source="Q4GSdecy_JUs_ZEFxcg4-3" target="Q4GSdecy_JUs_ZEFxcg4-4" edge="1">
          <mxGeometry width="50" height="50" relative="1" as="geometry">
            <mxPoint x="635" y="251" as="sourcePoint" />
            <mxPoint x="647" y="349" as="targetPoint" />
            <Array as="points">
              <mxPoint x="640" y="270" />
              <mxPoint x="770" y="240" />
            </Array>
          </mxGeometry>
        </mxCell>
        <mxCell id="ka5yBr0gDDP4swyb2B78-8" value="" style="endArrow=open;shadow=0;strokeWidth=1;rounded=0;endFill=1;elbow=vertical;exitX=0.95;exitY=0.7;exitDx=0;exitDy=0;exitPerimeter=0;" edge="1" parent="WIyWlLk6GJQsqaUBKTNV-1" source="Q4GSdecy_JUs_ZEFxcg4-3">
          <mxGeometry x="0.5" y="41" relative="1" as="geometry">
            <mxPoint x="980" y="215" as="sourcePoint" />
            <mxPoint x="970" y="220" as="targetPoint" />
            <mxPoint x="-40" y="32" as="offset" />
          </mxGeometry>
        </mxCell>
        <mxCell id="ka5yBr0gDDP4swyb2B78-11" value="" style="curved=1;endArrow=classic;html=1;rounded=0;entryX=0.05;entryY=0.757;entryDx=0;entryDy=0;exitX=0.921;exitY=0.2;exitDx=0;exitDy=0;dashed=1;entryPerimeter=0;exitPerimeter=0;" edge="1" parent="WIyWlLk6GJQsqaUBKTNV-1" source="Q4GSdecy_JUs_ZEFxcg4-15" target="HAlKXmDzrB93N0-EfDcC-1">
          <mxGeometry width="50" height="50" relative="1" as="geometry">
            <mxPoint x="330" y="475" as="sourcePoint" />
            <mxPoint x="592" y="418" as="targetPoint" />
            <Array as="points">
              <mxPoint x="400" y="490" />
              <mxPoint x="460" y="460" />
            </Array>
          </mxGeometry>
        </mxCell>
        <mxCell id="ka5yBr0gDDP4swyb2B78-16" value="" style="endArrow=open;shadow=0;strokeWidth=1;rounded=0;endFill=1;elbow=vertical;entryX=0;entryY=0.5;entryDx=0;entryDy=0;" edge="1" parent="WIyWlLk6GJQsqaUBKTNV-1" target="Q4GSdecy_JUs_ZEFxcg4-5">
          <mxGeometry x="0.5" y="41" relative="1" as="geometry">
            <mxPoint x="40" y="385" as="sourcePoint" />
            <mxPoint x="560" y="385" as="targetPoint" />
            <mxPoint x="-40" y="32" as="offset" />
            <Array as="points">
              <mxPoint x="40" y="660" />
            </Array>
          </mxGeometry>
        </mxCell>
      </root>
    </mxGraphModel>
  </diagram>
</mxfile>
